<?xml version="1.0" encoding="iso-8859-1"?>
<!-- Uploaded to: SVG Repo, www.svgrepo.com, Generator: SVG Repo Mixer Tools -->
<svg height="800px" width="800px" version="1.1" id="Capa_1" xmlns="http://www.w3.org/2000/svg" xmlns:xlink="http://www.w3.org/1999/xlink" 
	 viewBox="0 0 178.065 178.065" xml:space="preserve">
<g>
	<g>
		<g>
			<g>
				<path style="fill:#332825;" d="M111.836,18.345c0,0,3.825-11.807,18.869-10.115C145.749,9.922,154.03,0,154.03,0
					s-2.125,42.293-34.06,36.376L111.836,18.345z"/>
				<path style="fill:#504C4B;" d="M115.778,22.327c0,0,7.13-8.396,15.757-6.236c8.626,2.161,14.721-3.407,14.721-3.407
					s-6.493,26.171-24.517,20.138L115.778,22.327z"/>
			</g>
			<g>
				<path style="fill:#332825;" d="M66.229,18.345c0,0-3.825-11.807-18.869-10.115C32.316,9.922,24.035,0,24.035,0
					s2.125,42.293,34.06,36.376L66.229,18.345z"/>
				<path style="fill:#504C4B;" d="M62.287,22.327c0,0-7.131-8.396-15.757-6.236c-8.626,2.161-14.721-3.407-14.721-3.407
					s6.493,26.171,24.517,20.138L62.287,22.327z"/>
			</g>
		</g>
		<ellipse style="fill:#88582F;" cx="89.033" cy="141.819" rx="60.608" ry="32.792"/>
		<path style="fill:#88582F;" d="M135.852,94.46c-9.027-27.616-22.823-56.703-22.823-56.703H89.033H65.036
			c0,0-13.796,29.087-22.823,56.703c-4.949,15.139-8.464,29.835-7.488,39.057c2.755,26.043,27.072,38.97,54.308,41.269
			c27.235-2.299,51.552-15.226,54.308-41.269C144.316,124.295,140.8,109.599,135.852,94.46z"/>
		<path style="fill:#B5692A;" d="M137.346,30.643c-5.084-7.356-20.955-8.208-20.955-8.208c5.286-1.023,13.7-1.449,13.7-1.449
			c-10.701-8.01-23.823-4.456-23.823-4.456c2.746-2.811,6.921-5.867,6.921-5.867c-16.569-2.997-24.096,2.212-24.157,2.212
			c-0.062,0-7.588-5.209-24.157-2.212c0,0,4.176,3.057,6.921,5.867c0,0-13.122-3.554-23.823,4.456c0,0,8.414,0.427,13.7,1.449
			c0,0-15.871,0.852-20.956,8.208c0,0,7.281,0.445,11.402,1.515c-5.429,7.532-7.111,15.215-3.736,18.757
			c7.255,7.614,25.661,0.048,27.999,13.781c1.43,8.398-0.285,29.268-9.469,48.371c-6.969,14.495-13.543,24.634-15.063,31.961
			c-1.753,8.456,1.102,33.037,37.181,33.037c36.078,0,38.933-24.581,37.18-33.037c-1.519-7.327-8.093-17.466-15.062-31.961
			c-9.185-19.104-10.898-39.974-9.469-48.371c2.337-13.733,20.744-6.167,27.999-13.781c3.375-3.542,1.693-11.225-3.736-18.757
			C130.066,31.088,137.346,30.643,137.346,30.643z"/>
		<path style="fill:#E3A168;" d="M110.074,150.16c-3.606-8.414-11.671-10.939-21.042-10.939c-9.371,0-17.436,2.524-21.042,10.939
			c-3.606,8.415-0.601,18.873,8.174,18.873s9.857-4.207,12.868-4.207c3.01,0,4.092,4.207,12.867,4.207
			C110.675,169.033,113.681,158.575,110.074,150.16z"/>
		<g>
			<path style="fill:#FFD8A8;" d="M136.904,127.379c-0.779-7.117-3.26-13.525-5.816-17.953c-1.281-2.212-2.594-3.905-3.619-4.991
				c-0.503-0.545-0.947-0.945-1.251-1.22c-0.294-0.244-0.451-0.374-0.451-0.374c-0.227-0.189-0.563-0.206-0.81-0.02
				c-0.288,0.217-0.346,0.626-0.129,0.914c0,0,0.122,0.163,0.351,0.468c0.198,0.292,0.497,0.723,0.832,1.319
				c0.676,1.174,1.484,2.953,2.155,5.187c0.669,2.234,1.214,4.914,1.483,7.794c0.272,2.873,0.281,5.957-0.102,8.864
				c-0.187,1.452-0.486,2.852-0.881,4.107c-0.399,1.248-0.919,2.35-1.477,3.093c-0.556,0.759-1.112,1.062-1.395,1.047
				c-0.289-0.016-0.409-0.136-0.777-0.26c-4.81-0.51-8.017-0.849-8.017-0.849c-0.443-0.045-0.933-0.05-1.394-0.001
				c-3.652,0.383-6.303,3.654-5.92,7.307c0.383,3.652,3.655,6.303,7.307,5.92l0.006-0.001c0,0,3.264-0.342,8.159-0.855
				c2.048-0.14,4.596-0.898,6.608-2.498c2.03-1.579,3.313-3.687,4.057-5.658c0.754-1.995,1.072-3.945,1.21-5.833
				C137.157,130.999,137.095,129.162,136.904,127.379z"/>
			<path style="fill:#FFD8A8;" d="M41.161,127.379c0.779-7.117,3.261-13.525,5.816-17.953c1.281-2.212,2.595-3.905,3.619-4.991
				c0.503-0.545,0.947-0.945,1.251-1.22c0.294-0.244,0.45-0.374,0.45-0.374c0.228-0.189,0.564-0.206,0.81-0.02
				c0.288,0.217,0.346,0.626,0.129,0.914c0,0-0.122,0.163-0.352,0.468c-0.198,0.292-0.496,0.723-0.832,1.319
				c-0.676,1.174-1.484,2.953-2.155,5.187c-0.669,2.234-1.214,4.914-1.483,7.794c-0.272,2.873-0.282,5.957,0.101,8.864
				c0.187,1.452,0.486,2.852,0.881,4.107c0.4,1.248,0.919,2.35,1.477,3.093c0.556,0.759,1.112,1.062,1.395,1.047
				c0.289-0.016,0.409-0.136,0.778-0.26c4.81-0.51,8.016-0.849,8.016-0.849c0.443-0.045,0.934-0.05,1.394-0.001
				c3.653,0.383,6.303,3.654,5.92,7.307c-0.383,3.652-3.654,6.303-7.307,5.92l-0.006-0.001c0,0-3.264-0.342-8.159-0.855
				c-2.047-0.14-4.596-0.898-6.608-2.498c-2.029-1.579-3.312-3.687-4.057-5.658c-0.754-1.995-1.072-3.945-1.21-5.833
				C40.909,130.999,40.97,129.162,41.161,127.379z"/>
		</g>
		<g>
			<ellipse style="opacity:0.8;fill:#292623;" cx="79.589" cy="155.263" rx="3.842" ry="7.494"/>
			<ellipse style="opacity:0.8;fill:#292623;" cx="98.476" cy="155.263" rx="3.842" ry="7.494"/>
		</g>
		<g>
			<g>
				<circle style="fill:#B5692A;" cx="64.622" cy="76.72" r="7.061"/>
				<g>
					<circle style="fill:#2E1708;" cx="64.623" cy="76.72" r="4.451"/>
					<circle style="fill:#D6A26C;" cx="63.282" cy="75.332" r="1.792"/>
				</g>
			</g>
			<g>
				<circle style="fill:#B5692A;" cx="113.443" cy="76.72" r="7.061"/>
				<g>
					<circle style="fill:#2E1708;" cx="113.443" cy="76.72" r="4.451"/>
					<circle style="fill:#D6A26C;" cx="112.102" cy="75.332" r="1.792"/>
				</g>
			</g>
		</g>
	</g>
	<path style="opacity:0.1;fill:#FFCE99;" d="M89.033,12.874L89.033,12.874c-0.062,0-7.588-5.209-24.157-2.212
		c0,0,4.176,3.057,6.921,5.867c0,0-2.799-0.755-6.861-0.783c-2.107-3.371-7.142-8.69-17.577-7.516C32.316,9.922,24.035,0,24.035,0
		s1.721,34.14,25.237,36.776c-3.048,5.892-3.57,11.325-0.887,14.139c2.233,2.344,5.525,3.248,9.079,3.779
		c-4.65,10.839-10.585,25.493-15.25,39.766c-3.954,12.096-6.985,23.9-7.549,32.864c-3.989,4.371-6.24,9.29-6.24,14.495
		c0,13.095,14.191,24.394,34.703,29.649c5.699,3.902,13.978,6.597,25.906,6.597l0,0V12.874z"/>
</g>
</svg>